<svg xmlns="http://www.w3.org/2000/svg" viewBox="0 0 512 512">
  <defs>
    <linearGradient id="bg" x1="0%" y1="0%" x2="100%" y2="100%">
      <stop offset="0%" style="stop-color:#2563eb"/>
      <stop offset="100%" style="stop-color:#7c3aed"/>
    </linearGradient>
  </defs>
  <rect width="512" height="512" rx="108" fill="url(#bg)"/>
  <!-- Outer chip frame -->
  <rect x="126" y="126" width="260" height="260" rx="28" fill="none" stroke="#fff" stroke-width="14" opacity="0.85"/>
  <!-- Inner chip -->
  <rect x="186" y="186" width="140" height="140" rx="16" fill="#fff" opacity="0.95"/>
  <!-- Pins top -->
  <rect x="196" y="80" width="14" height="56" rx="7" fill="#38bdf8"/>
  <rect x="249" y="64" width="14" height="72" rx="7" fill="#38bdf8"/>
  <rect x="302" y="80" width="14" height="56" rx="7" fill="#38bdf8"/>
  <!-- Pins bottom -->
  <rect x="196" y="376" width="14" height="56" rx="7" fill="#38bdf8"/>
  <rect x="249" y="376" width="14" height="72" rx="7" fill="#38bdf8"/>
  <rect x="302" y="376" width="14" height="56" rx="7" fill="#38bdf8"/>
  <!-- Pins left -->
  <rect x="80" y="196" width="56" height="14" rx="7" fill="#38bdf8"/>
  <rect x="64" y="249" width="72" height="14" rx="7" fill="#38bdf8"/>
  <rect x="80" y="302" width="56" height="14" rx="7" fill="#38bdf8"/>
  <!-- Pins right -->
  <rect x="376" y="196" width="56" height="14" rx="7" fill="#38bdf8"/>
  <rect x="376" y="249" width="72" height="14" rx="7" fill="#38bdf8"/>
  <rect x="376" y="302" width="56" height="14" rx="7" fill="#38bdf8"/>
  <!-- Z letter -->
  <text x="256" y="275" text-anchor="middle" dominant-baseline="central" font-family="system-ui,-apple-system,sans-serif" font-weight="900" font-size="88" fill="#2563eb">Z</text>
</svg>
